<svg height="512pt" viewBox="0 -61 512 512" width="512pt" xmlns="http://www.w3.org/2000/svg"><path d="m497 0h-482c-8.285156 0-15 6.714844-15 15v360c0 8.285156 6.714844 15 15 15h482c8.285156 0 15-6.714844 15-15v-360c0-8.285156-6.714844-15-15-15zm-15 60h-361v-30h361zm-391-30v30h-61v-30zm-61 330v-270h452v270zm0 0"/><path d="m356.605469 154.394531c-5.855469-5.859375-15.355469-5.859375-21.210938 0-5.859375 5.859375-5.859375 15.355469 0 21.210938l49.390625 49.394531-49.390625 49.394531c-5.859375 5.859375-5.859375 15.355469 0 21.210938 5.855469 5.859375 15.355469 5.859375 21.210938 0l60-60c5.859375-5.855469 5.859375-15.351563 0-21.210938zm0 0"/><path d="m176.605469 154.394531c-5.855469-5.859375-15.355469-5.859375-21.210938 0l-60 60c-5.859375 5.859375-5.859375 15.355469 0 21.210938l60 60c5.855469 5.859375 15.351563 5.859375 21.210938 0 5.859375-5.855469 5.859375-15.351563 0-21.210938l-49.390625-49.394531 49.390625-49.394531c5.859375-5.855469 5.859375-15.355469 0-21.210938zm0 0"/><path d="m290.742188 120.769531c-7.859376-2.617187-16.351563 1.628907-18.972657 9.488281l-60 180c-2.621093 7.859376 1.628907 16.351563 9.488281 18.972657 7.859376 2.621093 16.351563-1.628907 18.972657-9.488281l60-180c2.621093-7.859376-1.628907-16.351563-9.488281-18.972657zm0 0"/></svg>